<svg xmlns="http://www.w3.org/2000/svg" width="28" height="28" viewBox="0 0 24 24" fill="none">
  <path
    d="M12 8.5A3.5 3.5 0 1 1 12 15.5A3.5 3.5 0 0 1 12 8.5ZM19.4 12.94C19.45 12.63 19.5 12.32 19.5 12C19.5 11.68 19.45 11.37 19.4 11.06L21.54 9.47C21.73 9.33 21.78 9.07 21.66 8.85L19.66 5.15C19.54 4.93 19.28 4.84 19.05 4.91L16.56 5.7C16.04 5.3 15.47 4.97 14.85 4.73L14.5 2.1C14.47 1.87 14.27 1.7 14.03 1.7H9.97C9.73 1.7 9.53 1.87 9.5 2.1L9.15 4.73C8.53 4.97 7.96 5.3 7.44 5.7L4.95 4.91C4.72 4.84 4.46 4.93 4.34 5.15L2.34 8.85C2.22 9.07 2.27 9.33 2.46 9.47L4.6 11.06C4.55 11.37 4.5 11.68 4.5 12C4.5 12.32 4.55 12.63 4.6 12.94L2.46 14.53C2.27 14.67 2.22 14.93 2.34 15.15L4.34 18.85C4.46 19.07 4.72 19.16 4.95 19.09L7.44 18.3C7.96 18.7 8.53 19.03 9.15 19.27L9.5 21.9C9.53 22.13 9.73 22.3 9.97 22.3H14.03C14.27 22.3 14.47 22.13 14.5 21.9L14.85 19.27C15.47 19.03 16.04 18.7 16.56 18.3L19.05 19.09C19.28 19.16 19.54 19.07 19.66 18.85L21.66 15.15C21.78 14.93 21.73 14.67 21.54 14.53L19.4 12.94Z"
    fill="#F7F1E3"/>
</svg>